<svg version="1.1" xmlns="http://www.w3.org/2000/svg" xmlns:xlink="http://www.w3.org/1999/xlink" width="500px" height="1024px" viewBox="0,0,256,256"><g fill="#f2e6d8" fill-rule="nonzero" stroke="none" stroke-width="1" stroke-linecap="butt" stroke-linejoin="miter" stroke-miterlimit="10" stroke-dasharray="" stroke-dashoffset="0" font-family="none" font-weight="none" font-size="none" text-anchor="none" style="mix-blend-mode: normal"><g transform="translate(0.00086,0.00086) scale(0.25,0.25)"><path d="M597.33333,810.66667c0,47.1283 -38.20504,85.33333 -85.33333,85.33333c-47.1283,0 -85.33333,-38.20503 -85.33333,-85.33333c0,-47.1283 38.20503,-85.33333 85.33333,-85.33333c22.63181,0 44.33667,8.99045 60.33978,24.99355c16.0031,16.0031 24.99355,37.70797 24.99355,60.33978zM746.66667,469.33333c-82.47452,0 -149.33333,66.85881 -149.33333,149.33333c0,82.47452 66.85881,149.33333 149.33333,149.33333c82.47452,0 149.33333,-66.85881 149.33333,-149.33333c0,-39.60566 -15.73329,-77.58918 -43.73872,-105.59461c-28.00543,-28.00543 -65.98895,-43.73872 -105.59461,-43.73872zM597.33333,362.66667c0,-94.91381 -57.1747,-180.48179 -144.86362,-216.80373c-87.68892,-36.32194 -188.62324,-16.24486 -255.73744,50.86934c-67.1142,67.1142 -87.19128,168.04851 -50.86934,255.73744c36.32194,87.68892 121.88992,144.86362 216.80373,144.86362c129.60282,0 234.66667,-105.06385 234.66667,-234.66667z"></path></g></g></svg>