<svg version="1.1" xmlns="http://www.w3.org/2000/svg" xmlns:xlink="http://www.w3.org/1999/xlink" width="1024px" height="1024px" viewBox="0,0,256,256"><g fill="#d90f33" fill-rule="nonzero" stroke="none" stroke-width="1" stroke-linecap="butt" stroke-linejoin="miter" stroke-miterlimit="10" stroke-dasharray="" stroke-dashoffset="0" font-family="none" font-weight="none" font-size="none" text-anchor="none" style="mix-blend-mode: normal"><g transform="scale(0.25,0.25)"><path d="M896,806.08c0,-17.67311 14.32689,-32 32,-32c17.67311,0 32,14.32689 32,32v73.92c0,26.50967 -21.49033,48 -48,48h-800c-26.50967,0 -48,-21.49033 -48,-48v-736c0,-26.50967 21.49033,-48 48,-48h800c26.50967,0 48,21.49033 48,48v166.144h-832v553.856h768zM896,246.144v-86.144h-768v86.144z"></path><path d="M641.92,405.056c6.0442,-16.61273 24.41127,-25.1802 41.024,-19.136c16.61273,6.0442 25.1802,24.41127 19.136,41.024l-128,352c-6.0442,16.61273 -24.41127,25.1802 -41.024,19.136c-16.61273,-6.0442 -25.1802,-24.41127 -19.136,-41.024zM776.192,469.408c-11.82331,-13.1488 -10.7488,-33.39269 2.4,-45.216c13.1488,-11.82331 33.39269,-10.7488 45.216,2.4l126.432,140.64c10.93495,12.16523 10.93495,30.61877 0,42.784l-126.432,140.64c-11.81448,13.1488 -32.0512,14.23048 -45.2,2.416c-13.1488,-11.81448 -14.23048,-32.0512 -2.416,-45.2l107.232,-119.232l-107.2,-119.232zM438.24,469.408c11.82331,-13.13996 10.75596,-33.37669 -2.384,-45.2c-13.13996,-11.82331 -33.37669,-10.75596 -45.2,2.384l-126.464,140.64c-10.93495,12.16523 -10.93495,30.61877 0,42.784l126.464,140.64c7.58041,8.73818 19.28672,12.70487 30.61762,10.3748c11.3309,-2.33008 20.52209,-10.59412 24.03938,-21.61442c3.51729,-11.02031 0.81301,-23.08095 -7.07299,-31.54438l-107.2,-119.232z"></path></g></g></svg>