<svg class="svg-icon" style="width: 1em;height: 1em;vertical-align: middle;fill: currentColor;overflow: hidden;" viewBox="0 0 1024 1024" version="1.1" xmlns="http://www.w3.org/2000/svg"><path d="M275.3 622.5l-34.8 247.7 40 41.4 231-116.2L738.6 913l46.4-40.2-33.5-247.7L927 419.8l-58.1-40-209-28.4-118.8-231-51.7-5.1-127.7 233.6-265.8 54.2 12.9 47.7 166.5 171.7z m0 0"  /><path d="M589.1 596.7c55.1 28.3 92.6 85.7 92.6 151.8v81.8c0 15.9-2.2 31.3-6.2 46-10.8 38.6-80.1-73.5-162.8-76.9-71.2-2.9-157.5 108.5-166.4 74.6-3.7-14-5.6-28.6-5.6-43.7v-81.8c0-66.3 37.8-123.7 93-151.9-37.1-25-61.5-67.5-61.5-115.6 0-76.9 62.4-139.3 139.3-139.3S651 403.9 651 480.8c0 48.3-24.6 90.9-61.9 115.9z m0 0"  /><path d="M511.5 132.4c4.6 0 9.3 1 13.7 3.2 6.1 3 11 8 14.1 14.1L645 364l236.4 34.4c16.9 2.5 28.7 18.2 26.2 35.1-1 6.7-4.1 13-9 17.7L727.5 617.8l40.4 235.5c2.8 16.8-8.5 32.9-25.3 35.8-1.7 0.3-3.5 0.5-5.2 0.5-5 0-9.9-1.2-14.4-3.6L511.5 774.7 300 885.9c-4.6 2.4-9.6 3.6-14.3 3.6-11.1 0-21.9-6.1-27.5-16.5-3.1-6.1-4.2-13-3.1-19.7l40.4-235.5-171.1-166.7c-12.2-11.9-12.5-31.5-0.6-43.8 4.8-4.9 11-8.1 17.7-9L378 363.8l105.7-214.2c5.3-10.9 16.4-17.2 27.8-17.2m0-31c-23.8 0-45 13.2-55.6 34.6l-98.4 199.6-220.3 32c-13.4 1.9-26 8.4-35.5 18-11.6 11.9-17.8 27.5-17.6 44 0.2 16.5 6.9 32 18.7 43.6l159.5 155.4L224.6 848c-2.3 13.3-0.1 27.3 6.3 39.3 10.8 20.4 31.8 33.1 54.9 33.1 10 0 19.9-2.5 28.8-7.1l197-103.6 197.1 103.6c8.8 4.7 18.8 7.1 28.9 7.1 3.5 0 7-0.3 10.5-0.9 16.4-2.8 30.6-11.8 40.1-25.3 9.6-13.5 13.2-30 10.5-46.2L761 628.6l159.4-155.3c9.7-9.5 16.1-22.1 18.1-35.5 2.4-16.4-1.7-32.7-11.7-46-9.9-13.2-24.4-21.9-40.7-24.3l-220.3-32L567 135.9c-6-12.1-16-22.1-28.1-28.1-8.5-4.2-18-6.4-27.4-6.4z m0 0"  /></svg>