<svg version="1.1" xmlns="http://www.w3.org/2000/svg" xmlns:xlink="http://www.w3.org/1999/xlink" width="1024px" height="1024px" viewBox="0,0,256,256"><g fill="#d90f33" fill-rule="nonzero" stroke="none" stroke-width="1" stroke-linecap="butt" stroke-linejoin="miter" stroke-miterlimit="10" stroke-dasharray="" stroke-dashoffset="0" font-family="none" font-weight="none" font-size="none" text-anchor="none" style="mix-blend-mode: normal"><g transform="translate(1.65338,4.46954) scale(0.25,0.25)"><path d="M510,640.3c-75.8,0 -137.5,-61.7 -137.5,-137.5c0,-5.4 0.3,-10.8 0.9,-16.1c1.2,-9.9 10.1,-16.9 20,-15.8c9.9,1.2 16.9,10.1 15.8,20c-0.5,3.9 -0.7,7.9 -0.7,11.9c0,56 45.5,101.5 101.5,101.5c56,0 101.5,-45.5 101.5,-101.5c0,-56 -45.5,-101.5 -101.5,-101.5c-3.5,0 -7,0.2 -10.5,0.5c-9.9,1 -18.7,-6.2 -19.7,-16.1c-1,-9.9 6.2,-18.7 16.1,-19.7c4.7,-0.5 9.4,-0.7 14.1,-0.7c75.8,0 137.5,61.7 137.5,137.5c0,75.8 -61.7,137.5 -137.5,137.5z"></path><path d="M510,799.4c-79.2,0 -153.7,-30.9 -209.8,-86.9c-56,-56 -86.9,-130.5 -86.9,-209.8c0,-30.1 4.5,-59.7 13.3,-88.2c3,-9.5 13,-14.8 22.5,-11.8c9.5,3 14.8,13 11.8,22.5c-7.8,25 -11.7,51.1 -11.7,77.5c0,143.7 116.9,260.6 260.6,260.6c143.7,0 260.6,-116.9 260.6,-260.6c0,-143.7 -116.7,-260.5 -260.4,-260.5c-26.3,0 -52.2,3.9 -77.1,11.6c-9.5,2.9 -19.6,-2.4 -22.5,-11.9c-2.9,-9.5 2.4,-19.6 11.9,-22.5c28.3,-8.8 57.8,-13.2 87.7,-13.2c79.2,0 153.7,30.9 209.8,86.9c56,56 86.9,130.5 86.9,209.8c0,79.2 -30.9,153.7 -86.9,209.8c-56.1,55.9 -130.6,86.7 -209.8,86.7z"></path><path d="M510,960.7c-61.8,0 -121.8,-12.1 -178.2,-36c-54.5,-23.1 -103.5,-56.1 -145.5,-98.1c-42,-42 -75.1,-91 -98.1,-145.5c-23.9,-56.5 -36,-116.4 -36,-178.2c0,-62.6 12.4,-123.2 36.8,-180.2c3.9,-9.1 14.5,-13.4 23.6,-9.5c9.1,3.9 13.4,14.5 9.5,23.6c-22.5,52.5 -33.9,108.4 -33.9,166c0,232.6 189.3,421.9 421.9,421.9c232.6,0 421.9,-189.3 421.9,-421.9c0,-232.6 -189.3,-421.9 -421.9,-421.9c-59.6,0 -117.3,12.2 -171.3,36.2c-9.1,4 -19.7,0 -23.8,-9.1c-4,-9.1 0,-19.7 9.1,-23.8c58.7,-26.1 121.2,-39.3 186,-39.3c61.8,0 121.8,12.1 178.2,36c54.5,23.1 103.5,56.1 145.5,98.1c42,42 75.1,91 98.1,145.5c23.9,56.5 36,116.4 36,178.2c0,61.8 -12.1,121.8 -36,178.2c-23.1,54.5 -56.1,103.5 -98.1,145.5c-42,42 -91,75.1 -145.5,98.1c-56.5,24.1 -116.5,36.2 -178.3,36.2z"></path><path d="M358.9,366.6h-125c-4.9,0 -9.7,-2 -13.1,-5.6l-173,-182.7c-4.9,-5.2 -6.3,-12.9 -3.5,-19.5c2.8,-6.6 9.3,-10.9 16.5,-10.9h95.8l-1.2,-102.1c-0.1,-7.4 4.3,-14.1 11.2,-16.9c6.8,-2.8 14.7,-1.2 19.8,4.2l185.4,192.3c3.2,3.4 5,7.8 5,12.5v110.7c0.1,10 -7.9,18 -17.9,18zM241.7,330.6h99.3v-85.4l-149,-154.5l0.9,75c0.1,4.8 -1.8,9.4 -5.2,12.9c-3.4,3.4 -8,5.3 -12.8,5.3h-72.1z"></path><path d="M510,520.8c-4.7,0 -9.3,-1.8 -12.8,-5.4l-151.1,-153.9c-7,-7.1 -6.9,-18.5 0.2,-25.5c7.1,-7 18.5,-6.9 25.5,0.2l151.1,153.9c7,7.1 6.9,18.5 -0.2,25.5c-3.6,3.5 -8.1,5.2 -12.7,5.2z"></path></g></g></svg>